<?xml version="1.0" encoding="UTF-8" standalone="no"?>
<svg
   xmlns:dc="http://purl.org/dc/elements/1.1/"
   xmlns:cc="http://creativecommons.org/ns#"
   xmlns:rdf="http://www.w3.org/1999/02/22-rdf-syntax-ns#"
   xmlns:svg="http://www.w3.org/2000/svg"
   xmlns="http://www.w3.org/2000/svg"
   xmlns:sodipodi="http://sodipodi.sourceforge.net/DTD/sodipodi-0.dtd"
   xmlns:inkscape="http://www.inkscape.org/namespaces/inkscape"
   sodipodi:docname="logo_bold.svg"
   inkscape:version="1.0 (unknown)"
   version="1.1"
   id="svg4818"
   height="281.87497"
   width="435.16031">
  <defs
     id="defs4820" />
  <sodipodi:namedview
     inkscape:document-rotation="0"
     inkscape:window-maximized="0"
     inkscape:window-y="29"
     inkscape:window-x="3840"
     inkscape:window-height="2127"
     inkscape:window-width="1916"
     fit-margin-bottom="0"
     fit-margin-right="0"
     fit-margin-left="0"
     fit-margin-top="0"
     showgrid="false"
     inkscape:current-layer="g5410"
     inkscape:document-units="px"
     inkscape:cy="154.86864"
     inkscape:cx="234.00977"
     inkscape:zoom="2"
     inkscape:pageshadow="2"
     inkscape:pageopacity="0.0"
     borderopacity="1.0"
     bordercolor="#666666"
     pagecolor="#ffffff"
     id="base" />
  <metadata
     id="metadata4823">
    <rdf:RDF>
      <cc:Work
         rdf:about="">
        <dc:format>image/svg+xml</dc:format>
        <dc:type
           rdf:resource="http://purl.org/dc/dcmitype/StillImage" />
        <dc:title />
      </cc:Work>
    </rdf:RDF>
  </metadata>
  <g
     transform="translate(-166.99741,-308.45916)"
     id="layer1"
     inkscape:groupmode="layer"
     inkscape:label="Layer 1">
    <g
       id="g5410">
      <path
         style="fill:#000000;stroke-width:0;stroke-miterlimit:4;stroke-dasharray:none;stroke:none"
         d="m 339.49352,322.12578 c -7.42132,0.33881 -13.65093,1.71074 -21.18117,6.24822 -7.53024,4.53748 -14.6388,14.77831 -17.02653,23.34362 -2.38773,8.56531 -3.78133,15.24508 -7.69208,22.25591 -3.91075,7.01083 -9.76376,11.89046 -12.46784,21.20443 -2.70408,9.31397 -4.97048,24.36384 -3.69267,32.71732 2.06356,13.50666 11.59988,20.88006 22.01142,25.90454 6.1462,2.97568 12.74622,9.57413 16.59963,15.42443 3.85341,5.8503 8.30008,10.1868 14.66892,12.16431 6.36884,1.97751 14.39394,1.52988 19.52658,-0.27382 5.13264,-1.8037 6.13468,-3.51758 10.95024,-7.02539 4.81556,-3.50781 11.38687,-11.07742 12.07099,-18.94368 1.08891,-6.71667 -1.00869,-13.58212 0.50369,-20.26343 0.66203,-2.92782 2.10729,-9.01359 10.45091,-9.58657 27.94155,-1.68181 42.00435,0.43726 65.58493,0.32601 11.92519,0.11472 23.85019,0.2485 35.7753,0.37124 -0.31229,2.04465 -0.24951,4.78427 2.04411,5.61435 7.08602,3.50479 15.32297,3.70382 23.06565,3.09903 11.96059,-1.85469 23.02829,-7.27282 33.35229,-13.41382 -9.40677,10.55507 -23.62839,15.89953 -37.50838,16.81566 -4.23611,0.50933 -9.56889,0.36966 -12.4862,3.91537 -1.24813,2.35213 1.73737,4.07647 3.49684,4.89509 6.28255,2.38285 13.31202,1.11583 19.71905,-0.0556 13.67983,-2.98565 26.58304,-10.65126 34.75165,-22.09573 2.16608,-3.49639 4.42985,-7.28529 4.73295,-11.44784 -0.14902,-1.78197 -3.35246,-0.58492 -2.98649,-2.54907 0.53613,-2.78203 2.84779,-6.39923 0.30068,-8.87954 -1.47822,-1.90231 -4.05447,-0.67995 -5.18699,0.89794 -0.93724,0.96123 -1.73496,2.06378 -2.63399,3.07074 -2.2917,-5.94913 -3.17138,-12.56551 -6.51435,-18.01657 -1.60075,-2.75822 -4.6308,-6.03009 -7.02046,-6.04467 -2.38966,-0.0146 -3.28022,3.03237 -2.19936,5.47842 2.98118,7.38529 5.60155,13.04959 7.08602,20.90501 0.33817,1.90904 0.56218,2.54471 0.81908,4.27303 0.2602,1.28296 -2.58605,2.63183 -2.75842,1.91356 -3.16986,-11.55054 -10.24975,-24.05427 -16.59473,-34.08553 -2.32493,-3.84446 -10.63504,-7.1224 -11.15622,-2.2899 -0.22657,2.02739 2.89814,5.21454 4.65262,8.56381 6.19094,10.18566 12.98535,19.31731 15.61815,31.10644 0.14562,0.54157 -1.856,2.23744 -2.22231,1.35938 -2.40255,-5.83894 -4.49974,-11.82494 -7.88742,-17.18218 -4.59108,-7.59981 -9.67318,-15.00734 -15.52137,-21.65857 -3.61093,-4.311 -12.45346,-3.21037 -9.04142,1.05479 8.3032,11.15741 17.67761,19.34218 21.3909,32.57123 0.0555,0.3197 -1.09754,-2.04644 -1.51158,-2.76077 -4.42616,-7.63482 -7.94502,-12.79486 -16.32616,-20.91862 -8.38114,-8.12376 -26.25809,-9.19235 -40.22734,-10.05732 -22.53643,-0.77391 -41.22793,0.16828 -63.74947,-1.01513 -3.7581,-0.15081 -12.19248,-1.27505 -14.87347,-2.88988 -2.68099,-1.61483 -3.09554,-6.0117 -3.77205,-8.34574 -2.50691,-8.53885 -1.82532,-16.659 -6.5458,-24.45006 -4.78021,-8.38911 -10.62332,-17.58409 -20.48988,-20.33145 -2.53368,-0.7531 -5.24208,-1.01611 -7.89845,-0.913 z m 0.75361,8.0983 c 5.24715,-0.39868 10.12079,2.24915 13.31354,6.33763 4.01342,5.12967 7.8785,10.57744 9.93898,16.89177 1.36667,5.4098 2.24647,10.99906 3.31869,16.43329 0.37827,4.07356 1.64412,9.1457 8.02149,12.96191 6.37737,3.81621 15.12285,3.74794 25.93212,4.14122 23.30313,0.25537 46.63409,0.36635 69.91748,1.55647 9.45935,0.44503 19.61016,4.08165 25.78879,11.81375 -8.55825,-4.06831 -11.71687,-5.27857 -31.92882,-5.91139 -31.56787,-1.13452 -56.30186,-0.0904 -87.86201,-1.53538 -12.02719,-0.47307 -14.495,-3.92019 -18.63827,-7.86853 -9.94364,-9.77075 -10.13797,-10.78152 -19.00331,-21.97144 -1.18356,-1.4811 -1.2168,-2.11305 -5.40077,-6.52879 -4.18398,-4.41575 -7.84087,0.42799 -7.24102,2.77125 0.59985,2.34326 2.54616,4.60738 3.49583,5.79899 10.0555,12.6634 10.41144,12.58613 21.85132,24.55695 7.27715,7.42057 14.42851,9.58538 22.45493,10.03818 35.09367,1.33508 59.66486,1.71383 94.77748,2.35473 8.84311,0.61137 20.72724,-0.12777 26.57846,7.0034 -5.64955,-1.83449 -10.70648,-3.32156 -31.47466,-3.47087 -34.31458,-1.07757 -54.63829,-1.68697 -88.96974,-1.44785 -8.15155,-0.16186 -17.25042,0.98118 -23.08354,7.20867 -9.1606,8.73134 -16.34855,17.84378 -22.9345,28.76446 -4.35986,6.87382 3.10162,11.54964 6.65459,5.9566 3.5689,-5.66808 11.56946,-16.53958 18.99499,-24.16358 5.38243,-5.11782 12.4493,-8.74391 19.84115,-9.62454 18.89171,-0.27805 37.78409,0.66684 56.67445,0.94121 17.37003,0.53465 34.77156,0.3684 52.1203,1.40657 3.85186,0.34077 7.69016,1.27084 11.1645,3.04027 -28.74769,-1.29219 -57.52863,-0.23043 -86.29182,-0.56548 -10.91927,0.72157 -33.35298,-2.65858 -39.53455,8.67109 -6.18157,11.32968 -3.45375,19.30984 -3.30775,27.62375 0.17868,6.43593 -5.97883,11.87298 -9.73555,14.63012 -3.75672,2.75714 -5.25417,4.63254 -8.61321,5.72963 -3.35904,1.09709 -7.37939,1.58207 -10.93787,0.79081 -3.55848,-0.79126 -5.84554,-0.50473 -9.51333,-5.06367 -3.66779,-4.55894 -8.84832,-12.86182 -15.21462,-17.82111 -13.85194,-9.59125 -24.64535,-11.69772 -26.16747,-25.53653 -0.82975,-7.95226 1.90874,-25.55008 5.69054,-33.79692 3.7818,-8.24684 7.82461,-9.11326 10.95189,-16.69148 3.12728,-7.57822 6.29302,-20.25805 9.28551,-27.87484 2.99249,-7.61679 8.36594,-10.97955 13.65372,-13.81689 5.28778,-2.83734 10.18975,-3.45178 15.43206,-3.73343 z m 208.46548,102.54438 c -4.7593,6.23459 -18.12759,16.03829 -27.4139,19.2576 -9.28631,3.21931 -13.80652,2.05624 -20.37699,4.53565 -8.05466,3.35102 3.1087,8.43934 9.67129,7.91579 6.56259,-0.52355 8.95435,-0.96248 19.27341,-5.70456 10.31905,-4.74208 24.31773,-17.86054 30.20274,-33.40745 0.48046,-1.20643 0.97394,-4.40375 -1.55446,-5.06615 -2.52839,-0.6624 -5.04278,6.23454 -9.80209,12.46912 z m 12.96105,-0.99165 c -2.45978,-0.0397 -2.14115,5.86534 -6.30983,12.44432 -4.16868,6.57898 -11.93585,17.60888 -24.13608,23.01794 -4.03611,1.82568 -9.98264,1.30512 -12.83858,2.66989 -2.85594,1.36477 -0.84912,4.12964 2.50494,5.24557 3.35406,1.11594 8.50869,1.18281 12.80582,0.38456 13.21873,-3.10683 23.8201,-13.55294 28.39537,-26.20246 1.41203,-4.12648 6.67729,-17.13767 -0.42164,-17.55982 z m -9.56102,37.05015 c -2.35501,1.94114 3.53086,9.85679 6.61524,21.56609 3.05973,11.61576 3.10028,26.15423 -0.50705,33.8311 -3.00296,5.56664 -8.55971,8.29566 -11.38012,14.69406 -3.36056,10.14182 1.41286,6.95597 7.32005,3.10718 9.89881,-7.0011 14.45743,-17.89641 15.62835,-26.54097 1.17092,-8.64457 0.31585,-13.97648 0.26725,-18.98105 6.14581,0.53175 13.3409,1.81202 19.31671,1.35801 4.23532,-0.36214 11.54077,-1.15052 12.47009,-3.16994 0.92932,-2.01942 -0.38013,-4.55911 -1.59479,-6.19255 -3.22607,-2.95009 -8.12329,-1.22862 -11.74232,-0.50519 -3.61903,0.72343 -5.2224,1.1268 -10.57783,-0.44444 -5.35543,-1.57124 -12.39859,-7.77898 -15.46293,-14.26556 -2.01623,-3.51085 -3.04659,-7.77486 -4.53825,-8.5926 -1.49166,-0.81775 -4.74992,3.1877 -5.8144,4.13586 z m -19.13319,11.01992 c -7.45146,6.97438 -17.08468,25.17113 -20.61984,36.36319 -0.71897,4.56573 -2.95428,10.87416 0.23511,13.99259 3.18939,3.11843 7.91755,1.37648 8.15987,-4.83461 1.62409,-12.38359 9.64717,-22.75412 17.7559,-31.77076 1.45415,1.90777 1.77115,3.91847 1.58572,9.43978 -0.18543,5.5213 -1.12253,14.18617 -3.36338,22.47882 -3.37754,13.84263 -7.30115,28.13063 -4.79458,42.46732 1.25943,9.08432 6.36698,18.18338 14.94187,22.0541 1.57315,0.86302 3.60326,-0.2513 3.57263,-2.11253 0.41959,-2.43623 1.39784,-5.55209 -1.0589,-7.26581 -5.81208,-6.51299 -7.74908,-15.4584 -8.64213,-23.87289 0.64325,-8.88194 3.17116,-17.55635 4.56577,-26.35833 2.88845,-15.45801 5.37165,-31.80815 0.69358,-47.16229 -0.90457,-2.86511 -2.12502,-7.41501 -3.08082,-7.79401 -0.9558,-0.37899 -7.88298,2.6499 -9.9508,4.37543 z m -5.77876,59.04868 c -5.4216,0.27647 -8.41584,0.28737 -13.71552,1.48416 -3.64991,1.08978 -6.4525,4.45687 -6.40022,8.33607 -0.25556,1.68396 2.56714,1.10727 4.12769,1.16403 5.70718,0.13198 11.41839,-0.79449 17.05428,-1.45553 2.22408,-0.13256 2.06252,-2.81019 2.29454,-4.37694 0.23202,-1.56675 1.00651,-5.23698 -3.36077,-5.15179 z"
         id="path2161"
         inkscape:connector-curvature="0"
         sodipodi:nodetypes="czzzzcczzzzccccccccccccccccccczcccccccccccccczcczccccccccczccccccczzccccccccccccccczczzzzcczzzzczzczzczzczczzccccsccczcczczzczccczcczcccccccczcccccczc" />
      <path
         style="font-size:medium;font-style:normal;font-variant:normal;font-weight:normal;font-stretch:normal;text-indent:0;text-align:start;text-decoration:none;line-height:normal;letter-spacing:normal;word-spacing:normal;text-transform:none;direction:ltr;block-progression:tb;writing-mode:lr-tb;text-anchor:start;baseline-shift:baseline;color:#000000;fill:#000000;fill-opacity:1;stroke:none;stroke-width:0;marker:none;visibility:visible;display:inline;overflow:visible;enable-background:accumulate;font-family:Sans;-inkscape-font-specification:Sans;stroke-miterlimit:4;stroke-dasharray:none"
         d="m 277.13725,476.2324 c -3.48006,5.24071 -12.24144,9.17995 -18.03966,12.23683 -5.79822,3.05688 -4.59555,9.60242 -2.13835,14.90129 2.4572,5.29887 5.98331,8.85782 11.53125,11.20663 5.54794,2.34881 11.0029,3.92854 18.7138,3.57611 7.7109,-0.35243 20.16014,-4.56485 24.04724,-10.67763 3.8871,-6.11278 5.29395,-8.66489 4.10784,-14.57214 -1.18611,-5.90725 -6.71578,-12.95828 -11.56514,-16.76784 -4.84936,-3.80956 -8.3204,-5.42042 -12.78553,-5.45497 -4.46512,-0.0345 -10.39139,0.31101 -13.87145,5.55172 z m 29.79593,20.92738 c -0.90234,3.64032 -4.57087,9.73829 -10.0125,11.30631 -5.44163,1.56802 -11.9939,2.45816 -17.79083,1.33182 -5.79693,-1.12634 -12.72707,-4.97832 -14.02608,-7.5184 -1.29901,-2.54008 -5.40705,-7.20809 1.64495,-10.38916 7.052,-3.18107 9.64632,-5.70069 15.65523,-10.77725 6.00891,-5.07656 9.55175,-3.51264 14.50445,-0.779 4.9527,2.73364 11.46921,8.9392 10.02478,16.82568 z"
         id="path4521"
         inkscape:connector-curvature="0"
         sodipodi:nodetypes="zzzzzzzzzzczzzzzzc" />
      <path
         style="font-size:medium;font-style:normal;font-variant:normal;font-weight:normal;font-stretch:normal;text-indent:0;text-align:start;text-decoration:none;line-height:normal;letter-spacing:normal;word-spacing:normal;text-transform:none;direction:ltr;block-progression:tb;writing-mode:lr-tb;text-anchor:start;baseline-shift:baseline;color:#000000;fill:#000000;fill-opacity:1;stroke:none;stroke-width:0;marker:none;visibility:visible;display:inline;overflow:visible;enable-background:accumulate;font-family:Sans;-inkscape-font-specification:Sans;stroke-miterlimit:4;stroke-dasharray:none"
         d="m 278.79565,308.47604 c -8.9687,-0.1128 -16.81061,4.91105 -23.96169,9.71712 -7.23561,5.43331 -11.23315,14.73309 -10.60491,23.72492 0.34693,5.04228 4.67672,9.4312 9.77393,9.47485 6.91908,0.73994 15.01423,0.12671 20.81168,1.70069 5.79745,1.57398 10.04786,1.07921 14.47873,-0.95816 4.84704,-2.90307 9.64816,-6.77695 11.14076,-12.47391 1.70725,-5.31734 2.99266,-11.07062 1.39412,-16.58396 -1.69414,-7.21164 -8.51876,-12.04069 -15.25348,-14.07565 -2.54344,-0.57101 -5.1806,-0.56916 -7.77914,-0.5259 z m 3.66552,8.09765 c 3.37157,-0.22414 6.14867,2.14562 8.69585,4.00928 3.52537,2.82943 3.50409,7.96756 2.7727,11.99459 -0.94801,3.84217 -2.38773,8.08252 -5.57891,10.34725 -3.19118,2.26473 -7.92745,4.1402 -12.0377,2.85336 -4.11024,-1.28684 -8.25925,-1.51279 -12.61327,-1.77055 -4.35402,-0.25776 -8.92582,0.62743 -10.59385,-1.12437 -1.66803,-1.7518 -0.12657,-8.60882 1.64355,-12.32086 3.16106,-6.25924 9.99318,-9.04303 15.79158,-12.30763 3.68243,-1.93107 7.89045,-1.67744 11.92005,-1.68107 z"
         id="path4519"
         inkscape:connector-curvature="0"
         sodipodi:nodetypes="cccczcccccccczzzzccc" />
      <path
         style="font-size:medium;font-style:normal;font-variant:normal;font-weight:normal;font-stretch:normal;text-indent:0;text-align:start;text-decoration:none;line-height:normal;letter-spacing:normal;word-spacing:normal;text-transform:none;direction:ltr;block-progression:tb;writing-mode:lr-tb;text-anchor:start;baseline-shift:baseline;color:#000000;fill:#000000;fill-opacity:1;stroke:none;stroke-width:0;marker:none;visibility:visible;display:inline;overflow:visible;enable-background:accumulate;font-family:Sans;-inkscape-font-specification:Sans;stroke-miterlimit:4;stroke-dasharray:none"
         d="m 259.30294,439.40465 c -7.20575,0.8516 -14.12579,3.39628 -21.03522,5.55619 -9.72736,3.39477 -20.15681,7.4504 -26.33366,16.01281 -4.48637,6.03165 -3.36058,15.27087 2.62733,19.95217 9.9816,7.35035 21.53411,5.959 31.55706,5.74165 8.67865,-0.61024 17.79794,-2.50858 24.72753,-7.92302 5.2953,-4.37452 8.7794,-11.39778 7.28322,-18.31186 -0.9682,-6.48277 -3.96189,-12.69651 -8.98666,-17.0463 -2.55115,-2.61954 -6.06654,-4.31119 -9.8396,-3.98164 z m 0.88015,7.49298 c 3.06551,0.0611 4.74981,3.20753 6.72662,5.11382 2.63986,3.37003 3.54029,7.80005 4.04048,11.90165 -0.21964,3.8793 -2.61252,7.42767 -5.63389,9.8242 -6.3695,3.87048 -14.18289,5.35021 -21.7007,5.57263 -8.14557,-0.24603 -22.5223,1.31062 -26.075,-6.50781 -2.2266,-3.70415 0.27351,-7.98657 3.19569,-10.4796 7.53868,-6.71326 17.7367,-9.44755 27.19719,-12.57229 4.02888,-1.08882 8.06721,-2.55489 12.24961,-2.8526 z"
         id="path4517"
         inkscape:connector-curvature="0"
         sodipodi:nodetypes="cccccccccccccccccc" />
      <path
         style="font-size:medium;font-style:normal;font-variant:normal;font-weight:normal;font-stretch:normal;text-indent:0;text-align:start;text-decoration:none;line-height:normal;letter-spacing:normal;word-spacing:normal;text-transform:none;direction:ltr;block-progression:tb;writing-mode:lr-tb;text-anchor:start;baseline-shift:baseline;color:#000000;fill:#000000;fill-opacity:1;stroke:none;stroke-width:0;marker:none;visibility:visible;display:inline;overflow:visible;enable-background:accumulate;font-family:Sans;-inkscape-font-specification:Sans;stroke-miterlimit:4;stroke-dasharray:none"
         d="m 223.48102,367.34357 c -3.97074,5.39062 -7.36195,11.63957 -8.09586,18.39379 -0.59072,6.30266 4.3108,12.24795 10.2161,13.80217 5.5837,0.75432 10.99834,-1.0874 16.14853,-2.97599 7.31914,-2.21593 15.23648,-2.49089 22.45048,-5.00425 6.24565,-2.93724 9.06774,-10.94843 9.62154,-16.37046 0.5538,-5.42203 -2.67264,-15.34134 -6.50161,-18.64405 -3.82897,-3.30271 -7.84824,-3.07208 -13.09391,-3.55606 -11.41802,-0.3662 -25.79997,6.66128 -30.74527,14.35485 z m 28.715,-7.07514 c 5.95459,0.32997 10.63158,0.72315 12.76713,6.65675 2.13555,5.9336 0.92767,16.28667 -4.40761,17.39441 -8.89939,2.18205 -18.25152,2.82656 -26.77604,6.40753 -2.19952,0.63461 -4.66831,1.02402 -6.902,0.72206 -1.95439,-1.0979 -3.96374,-2.8901 -3.362,-5.38995 1.82192,-8.9025 6.32804,-16.81373 14.03434,-21.49985 3.92054,-2.21549 8.69159,-4.62092 14.64618,-4.29095 z"
         id="path4515"
         inkscape:connector-curvature="0"
         sodipodi:nodetypes="ccccczzcczzcccccz" />
      <path
         style="font-size:medium;font-style:normal;font-variant:normal;font-weight:normal;font-stretch:normal;text-indent:0;text-align:start;text-decoration:none;line-height:normal;letter-spacing:normal;word-spacing:normal;text-transform:none;direction:ltr;block-progression:tb;writing-mode:lr-tb;text-anchor:start;baseline-shift:baseline;color:#000000;fill:#000000;fill-opacity:1;stroke:none;stroke-width:0;marker:none;visibility:visible;display:inline;overflow:visible;enable-background:accumulate;font-family:Sans;-inkscape-font-specification:Sans;stroke-miterlimit:4;stroke-dasharray:none"
         d="m 251.67921,398.07621 c -7.57551,0.27159 -14.97997,2.45834 -21.92554,5.22922 -4.42077,1.88714 -8.80474,4.22476 -12.2993,7.30504 -6.67604,6.03574 -12.72256,14.14411 -12.11097,23.44827 2.96507,14.54369 18.72888,13.77626 28.84301,10.42998 8.89627,-2.65197 17.98194,-4.97843 26.47576,-8.63818 6.10726,-3.53486 7.61032,-11.01695 8.0848,-17.37298 0.46994,-7.07548 -1.648,-15.40674 -8.5054,-18.98976 -2.58301,-1.37277 -5.65215,-1.47829 -8.56236,-1.41159 z m 0.5813,7.61031 c 2.49849,-0.14237 5.37324,0.34768 6.62798,2.71255 3.0698,5.40883 2.29484,12.32385 0.20504,17.99607 -1.31782,3.65748 -5.85091,3.91262 -9.00801,5.27988 -8.22454,2.51086 -16.40052,5.50367 -24.88874,7.02897 -7.41375,1.99449 -13.077,-1.72155 -12.1845,-7.61411 2.24471,-11.81206 13.39243,-18.08097 22.74585,-21.91302 5.31428,-1.74771 10.85448,-3.40336 16.50238,-3.49034 z"
         id="path4513"
         inkscape:connector-curvature="0"
         sodipodi:nodetypes="ccccccccccccccccc" />
      <path
         sodipodi:nodetypes="zzzzzzsz"
         style="fill:#000000;stroke:none;stroke-width:0;stroke-miterlimit:4;stroke-dasharray:none"
         d="m 244.74671,499.53784 c -5.03162,-0.0603 -24.31262,2.0993 -30.90999,3.75731 -6.59737,1.65801 -6.24648,4.42509 1.12012,7.07272 7.3666,2.64763 18.29123,3.29621 28.31567,3.9108 10.02444,0.61459 12.77282,-3.33102 6.54003,-4.69047 -6.23279,-1.35945 -18.10058,-0.61427 -14.4288,-2.9505 3.67178,-2.33623 8.92574,-1.00341 12.87164,-2.74126 3.13301,-1.37984 1.52295,-4.29832 -3.50867,-4.3586 z"
         id="path4511"
         inkscape:connector-curvature="0" />
      <path
         sodipodi:nodetypes="ccczcczccc"
         style="fill:#000000;stroke-width:0;stroke-miterlimit:4;stroke-dasharray:none;stroke:none"
         d="m 238.26787,334.89475 c -5.05311,1.3886 -9.13645,5.14024 -13.28237,8.2055 -5.31892,4.55413 -10.10612,9.18719 -13.47922,16.08436 -0.87055,1.9257 -0.50286,3.30626 2.2331,2.78465 2.73595,-0.5216 14.13724,-6.97976 21.23752,-10.52215 1.35326,-0.57152 3.19716,-2.83188 1.22326,-3.82539 -3.86539,-1.51292 -12.35171,4.73461 -10.42972,1.72386 1.92199,-3.01075 10.42751,-8.20815 14.20664,-12.78883 0.26216,-1.01541 -0.71693,-1.87706 -1.70921,-1.66202 z"
         id="path4509"
         inkscape:connector-curvature="0" />
      <path
         sodipodi:nodetypes="cccccczcc"
         style="fill:#000000;stroke:none;stroke-width:0;stroke-miterlimit:4;stroke-dasharray:none"
         d="m 199.19465,395.98094 c -4.05915,4.59094 -13.61892,15.36704 -16.88788,23.67224 -0.87123,2.49444 2.16643,2.78609 4.43052,1.46151 10.90387,-6.74302 21.12243,-11.14008 30.33934,-18.38311 1.24749,-0.84765 1.55299,-3.35166 -0.66105,-3.39002 -3.10451,0.0382 -3.66321,0.941 -6.63446,2.44341 -3.39235,1.85678 -14.19127,7.42381 -10.0159,2.27789 4.17537,-5.14591 4.73299,-5.63736 8.19567,-9.50523 3.02364,-4.00531 -1.38511,-6.36931 -8.76624,1.42331 z"
         id="path4507"
         inkscape:connector-curvature="0" />
      <path
         sodipodi:nodetypes="zzczzzczz"
         style="fill:#000000;stroke-width:0;stroke-miterlimit:4;stroke-dasharray:none;stroke:none"
         d="m 198.79654,467.58941 c -2.45797,0.70594 -9.01917,3.90596 -14.61059,6.85471 -5.59142,2.94875 -10.40196,5.79543 -15.41475,9.69252 -1.44746,1.21275 -4.92077,5.63995 5.09163,5.70998 10.01239,0.07 23.68422,-4.37918 29.10312,-5.95045 5.4189,-1.57127 2.036,-4.872 -1.62451,-4.34394 -3.66051,0.52805 -13.95051,2.52999 -12.05609,-0.27611 2.31615,-3.08305 4.81953,-3.5916 11.32172,-7.70805 6.5022,-4.11646 0.64744,-4.6846 -1.81053,-3.97866 z"
         id="path4505"
         inkscape:connector-curvature="0" />
      <path
         sodipodi:nodetypes="zzcczzzzz"
         style="fill:#000000;stroke-width:0;stroke-miterlimit:4;stroke-dasharray:none;stroke:none"
         d="m 194.32074,434.59071 c -3.23876,1.67215 -4.99023,2.85234 -10.26272,7.42233 -5.2725,4.56999 -11.73511,12.3981 -14.58509,20.31722 -0.71099,1.62942 1.44807,3.21252 3.18951,2.59923 11.02604,-4.92538 25.43239,-12.53882 29.1514,-15.851 3.71901,-3.31218 0.0292,-5.72366 -3.80633,-3.84871 -3.83549,1.87495 -13.82862,5.91569 -8.21306,0.18629 5.61556,-5.7294 5.00832,-4.71388 7.5425,-7.98095 2.53418,-3.26707 0.22255,-4.51656 -3.01621,-2.84441 z"
         id="path2987"
         inkscape:connector-curvature="0" />
    </g>
  </g>
</svg>
